<svg xmlns="http://www.w3.org/2000/svg" xmlns:xlink="http://www.w3.org/1999/xlink" viewBox="0 0 800 562" width="800" height="562">
  <rect width="100%" height="100%" fill="#ffffff"/>
  <defs>
    <radialGradient id="x0g0" cx=".5" cy=".5" fx=".33" fy=".33" r=".66"><stop offset="0%" stop-color="#fafafa"/><stop offset="40%" stop-color="#fafafa"/><stop offset="100%" stop-color="#b6a6ab"/></radialGradient>
    <radialGradient id="x0g1" cx=".5" cy=".5" fx=".33" fy=".33" r=".66"><stop offset="0%" stop-color="#dcdcdc"/><stop offset="40%" stop-color="#d9d9d9"/><stop offset="100%" stop-color="#a28d93"/></radialGradient>
    <radialGradient id="x0g2" cx=".5" cy=".5" fx=".33" fy=".33" r=".66"><stop offset="0%" stop-color="#dcdcdc"/><stop offset="40%" stop-color="#d9d9d9"/><stop offset="100%" stop-color="#a38e94"/></radialGradient>
    <radialGradient id="x0g3" cx=".5" cy=".5" fx=".33" fy=".33" r=".66"><stop offset="0%" stop-color="#f44d30"/><stop offset="40%" stop-color="#ff0d0d"/><stop offset="100%" stop-color="#bb0038"/></radialGradient>
    <radialGradient id="x0g4" cx=".5" cy=".5" fx=".33" fy=".33" r=".66"><stop offset="0%" stop-color="#f6745d"/><stop offset="40%" stop-color="#ff4242"/><stop offset="100%" stop-color="#c93863"/></radialGradient>
    <radialGradient id="x0g5" cx=".5" cy=".5" fx=".33" fy=".33" r=".66"><stop offset="0%" stop-color="#fbfbfb"/><stop offset="40%" stop-color="#fbfbfb"/><stop offset="100%" stop-color="#c8bdc0"/></radialGradient>
    <radialGradient id="x0g6" cx=".5" cy=".5" fx=".33" fy=".33" r=".66"><stop offset="0%" stop-color="#dedede"/><stop offset="40%" stop-color="#dbdbdb"/><stop offset="100%" stop-color="#a8959b"/></radialGradient>
    <radialGradient id="x0g7" cx=".5" cy=".5" fx=".33" fy=".33" r=".66"><stop offset="0%" stop-color="#dcdcdc"/><stop offset="40%" stop-color="#d9d9d9"/><stop offset="100%" stop-color="#a38e94"/></radialGradient>
    <radialGradient id="x0g8" cx=".5" cy=".5" fx=".33" fy=".33" r=".66"><stop offset="0%" stop-color="#fafafa"/><stop offset="40%" stop-color="#fafafa"/><stop offset="100%" stop-color="#bcadb2"/></radialGradient>
    <radialGradient id="x0g9" cx=".5" cy=".5" fx=".33" fy=".33" r=".66"><stop offset="0%" stop-color="#8ea6c2"/><stop offset="40%" stop-color="#7f7fbf"/><stop offset="100%" stop-color="#42429b"/></radialGradient>
    <radialGradient id="x0g10" cx=".5" cy=".5" fx=".33" fy=".33" r=".66"><stop offset="0%" stop-color="#fafafa"/><stop offset="40%" stop-color="#fafafa"/><stop offset="100%" stop-color="#bbacb1"/></radialGradient>
    <radialGradient id="x0g11" cx=".5" cy=".5" fx=".33" fy=".33" r=".66"><stop offset="0%" stop-color="#fafafa"/><stop offset="40%" stop-color="#fafafa"/><stop offset="100%" stop-color="#b6a6ab"/></radialGradient>
    <radialGradient id="x0g12" cx=".5" cy=".5" fx=".33" fy=".33" r=".66"><stop offset="0%" stop-color="#f44d30"/><stop offset="40%" stop-color="#ff0d0d"/><stop offset="100%" stop-color="#bb0038"/></radialGradient>
    <radialGradient id="x0g13" cx=".5" cy=".5" fx=".33" fy=".33" r=".66"><stop offset="0%" stop-color="#98aec7"/><stop offset="40%" stop-color="#8b8bc5"/><stop offset="100%" stop-color="#5454a4"/></radialGradient>
    <radialGradient id="x0g14" cx=".5" cy=".5" fx=".33" fy=".33" r=".66"><stop offset="0%" stop-color="#fbfbfb"/><stop offset="40%" stop-color="#fbfbfb"/><stop offset="100%" stop-color="#ccc1c5"/></radialGradient>
    <radialGradient id="x0g15" cx=".5" cy=".5" fx=".33" fy=".33" r=".66"><stop offset="0%" stop-color="#fbfbfb"/><stop offset="40%" stop-color="#fbfbfb"/><stop offset="100%" stop-color="#cbc0c3"/></radialGradient>
    <radialGradient id="x0g16" cx=".5" cy=".5" fx=".33" fy=".33" r=".66"><stop offset="0%" stop-color="#fafafa"/><stop offset="40%" stop-color="#fafafa"/><stop offset="100%" stop-color="#b9aaaf"/></radialGradient>
  </defs>
  <defs>
    <radialGradient id="x0vg1" cx=".5" cy=".5" fx=".33" fy=".33" r=".66"><stop offset="0%" stop-color="#fafafa"/><stop offset="100%" stop-color="#875e74"/></radialGradient>
    <radialGradient id="x0vg8" cx=".5" cy=".5" fx=".33" fy=".33" r=".66"><stop offset="0%" stop-color="#ff0d0d"/><stop offset="100%" stop-color="#7b0042"/></radialGradient>
    <radialGradient id="x0vg7" cx=".5" cy=".5" fx=".33" fy=".33" r=".66"><stop offset="0%" stop-color="#7f7fbf"/><stop offset="100%" stop-color="#27276a"/></radialGradient>
    <radialGradient id="x0vg6" cx=".5" cy=".5" fx=".33" fy=".33" r=".66"><stop offset="0%" stop-color="#d9d9d9"/><stop offset="100%" stop-color="#755165"/></radialGradient>
  </defs>
  <circle cx="391.8" cy="254.5" r="13.5" fill="url(#x0g14)" stroke="#727272" stroke-width="1.7"/>
  <line x1="391.2" y1="250.2" x2="388.9" y2="234.2" stroke="#232323" stroke-width="11.3" stroke-linecap="round"/>
  <circle cx="234.7" cy="315.5" r="13.5" fill="url(#x0g15)" stroke="#6a6a6a" stroke-width="1.7"/>
  <line x1="231.8" y1="309.7" x2="223.2" y2="292.0" stroke="#252525" stroke-width="11.3" stroke-linecap="round"/>
  <circle cx="649.4" cy="266.9" r="13.5" fill="url(#x0g5)" stroke="#5e5e5e" stroke-width="1.7"/>
  <line x1="637.8" y1="269.9" x2="604.1" y2="278.7" stroke="#313131" stroke-width="11.3" stroke-linecap="round"/>
  <circle cx="584.3" cy="283.8" r="23.0" fill="url(#x0g4)" stroke="#505050" stroke-width="1.7"/>
  <line x1="578.7" y1="278.4" x2="564.4" y2="264.6" stroke="#111111" stroke-width="11.3" stroke-linecap="round"/>
  <circle cx="218.1" cy="281.6" r="24.1" fill="url(#x0g13)" stroke="#232323" stroke-width="1.7"/>
  <line x1="232.9" y1="269.6" x2="270.6" y2="239.0" stroke="#090909" stroke-width="11.3" stroke-linecap="round"/>
  <line x1="197.4" y1="281.8" x2="162.1" y2="282.2" stroke="#0e0e0e" stroke-width="11.3" stroke-linecap="round"/>
  <circle cx="412.3" cy="150.6" r="13.5" fill="url(#x0g8)" stroke="#1f1f1f" stroke-width="1.7"/>
  <line x1="408.5" y1="162.1" x2="394.9" y2="204.0" stroke="#101010" stroke-width="11.3" stroke-linecap="round"/>
  <circle cx="387.8" cy="225.8" r="25.6" fill="url(#x0g6)" stroke="#1b1b1b" stroke-width="1.7"/>
  <line x1="401.9" y1="237.4" x2="440.9" y2="269.4" stroke="#040404" stroke-width="11.3" stroke-linecap="round"/>
  <line x1="366.2" y1="225.9" x2="307.9" y2="226.2" stroke="#080808" stroke-width="11.3" stroke-linecap="round"/>
  <circle cx="439.3" cy="411.4" r="13.5" fill="url(#x0g10)" stroke="#1a1a1a" stroke-width="1.7"/>
  <line x1="439.7" y1="407.1" x2="441.0" y2="393.7" stroke="#040404" stroke-width="11.3" stroke-linecap="round"/>
  <circle cx="150.6" cy="282.3" r="13.5" fill="url(#x0g16)" stroke="#121212" stroke-width="1.7"/>
  <circle cx="286.3" cy="226.3" r="25.6" fill="url(#x0g7)" stroke="#050505" stroke-width="1.7"/>
  <line x1="279.3" y1="214.7" x2="266.0" y2="192.7" stroke="#000000" stroke-width="11.3" stroke-linecap="round"/>
  <circle cx="558.1" cy="258.7" r="25.6" fill="url(#x0g2)" stroke="#050505" stroke-width="1.7"/>
  <line x1="536.4" y1="263.4" x2="476.8" y2="276.3" stroke="#000000" stroke-width="11.3" stroke-linecap="round"/>
  <line x1="574.3" y1="248.3" x2="604.6" y2="228.9" stroke="#000000" stroke-width="11.3" stroke-linecap="round"/>
  <circle cx="455.0" cy="281.0" r="25.6" fill="url(#x0g1)" stroke="#000000" stroke-width="1.7"/>
  <line x1="451.7" y1="273.8" x2="445.2" y2="259.7" stroke="#000000" stroke-width="11.3" stroke-linecap="round"/>
  <line x1="452.1" y1="303.9" x2="444.5" y2="364.5" stroke="#000000" stroke-width="11.3" stroke-linecap="round"/>
  <circle cx="441.7" cy="386.0" r="24.1" fill="url(#x0g9)" stroke="#000000" stroke-width="1.7"/>
  <line x1="423.3" y1="391.0" x2="391.5" y2="399.5" stroke="#000000" stroke-width="11.3" stroke-linecap="round"/>
  <circle cx="619.2" cy="219.6" r="23.0" fill="url(#x0g3)" stroke="#000000" stroke-width="1.7"/>
  <circle cx="381.2" cy="402.3" r="13.5" fill="url(#x0g11)" stroke="#000000" stroke-width="1.7"/>
  <circle cx="259.7" cy="182.3" r="23.0" fill="url(#x0g12)" stroke="#000000" stroke-width="1.7"/>
  <circle cx="443.5" cy="255.9" r="13.5" fill="url(#x0g0)" stroke="#000000" stroke-width="1.7"/>
  <g opacity="0.25">
    <circle cx="391.8" cy="254.5" r="73.9" fill="url(#x0vg1)"/>
    <circle cx="234.7" cy="315.5" r="73.9" fill="url(#x0vg1)"/>
    <circle cx="649.4" cy="266.9" r="73.9" fill="url(#x0vg1)"/>
    <circle cx="584.3" cy="283.8" r="116.5" fill="url(#x0vg8)"/>
    <circle cx="218.1" cy="281.6" r="122.1" fill="url(#x0vg7)"/>
    <circle cx="412.3" cy="150.6" r="73.9" fill="url(#x0vg1)"/>
    <circle cx="387.8" cy="225.8" r="129.8" fill="url(#x0vg6)"/>
    <circle cx="439.3" cy="411.4" r="73.9" fill="url(#x0vg1)"/>
    <circle cx="150.6" cy="282.3" r="73.9" fill="url(#x0vg1)"/>
    <circle cx="286.3" cy="226.3" r="129.8" fill="url(#x0vg6)"/>
    <circle cx="558.1" cy="258.7" r="129.8" fill="url(#x0vg6)"/>
    <circle cx="455.0" cy="281.0" r="129.8" fill="url(#x0vg6)"/>
    <circle cx="441.7" cy="386.0" r="122.1" fill="url(#x0vg7)"/>
    <circle cx="619.2" cy="219.6" r="116.5" fill="url(#x0vg8)"/>
    <circle cx="381.2" cy="402.3" r="73.9" fill="url(#x0vg1)"/>
    <circle cx="259.7" cy="182.3" r="116.5" fill="url(#x0vg8)"/>
    <circle cx="443.5" cy="255.9" r="73.9" fill="url(#x0vg1)"/>
  </g>
</svg>