<svg xmlns="http://www.w3.org/2000/svg" xmlns:xlink="http://www.w3.org/1999/xlink" viewBox="0 0 799 562" width="799" height="562">
  <rect width="100%" height="100%" fill="#ffffff"/>
  <defs>
    <radialGradient id="x0g0" cx=".5" cy=".5" fx=".33" fy=".33" r=".66"><stop offset="0%" stop-color="#ffffff"/><stop offset="40%" stop-color="#ffffff"/><stop offset="100%" stop-color="#9d7b81"/></radialGradient>
    <radialGradient id="x0g1" cx=".5" cy=".5" fx=".33" fy=".33" r=".66"><stop offset="0%" stop-color="#b6b6b6"/><stop offset="40%" stop-color="#aaaaaa"/><stop offset="100%" stop-color="#6b4f55"/></radialGradient>
    <radialGradient id="x0g2" cx=".5" cy=".5" fx=".33" fy=".33" r=".66"><stop offset="0%" stop-color="#b7b7b7"/><stop offset="40%" stop-color="#ababab"/><stop offset="100%" stop-color="#6e5258"/></radialGradient>
    <radialGradient id="x0g3" cx=".5" cy=".5" fx=".33" fy=".33" r=".66"><stop offset="0%" stop-color="#ef5240"/><stop offset="40%" stop-color="#ff0d0d"/><stop offset="100%" stop-color="#93001d"/></radialGradient>
    <radialGradient id="x0g4" cx=".5" cy=".5" fx=".33" fy=".33" r=".66"><stop offset="0%" stop-color="#f4887c"/><stop offset="40%" stop-color="#ff5959"/><stop offset="100%" stop-color="#b55064"/></radialGradient>
    <radialGradient id="x0g5" cx=".5" cy=".5" fx=".33" fy=".33" r=".66"><stop offset="0%" stop-color="#ffffff"/><stop offset="40%" stop-color="#ffffff"/><stop offset="100%" stop-color="#c1acb0"/></radialGradient>
    <radialGradient id="x0g6" cx=".5" cy=".5" fx=".33" fy=".33" r=".66"><stop offset="0%" stop-color="#bdbdbd"/><stop offset="40%" stop-color="#b3b3b3"/><stop offset="100%" stop-color="#7b6267"/></radialGradient>
    <radialGradient id="x0g7" cx=".5" cy=".5" fx=".33" fy=".33" r=".66"><stop offset="0%" stop-color="#b7b7b7"/><stop offset="40%" stop-color="#ababab"/><stop offset="100%" stop-color="#6e5358"/></radialGradient>
    <radialGradient id="x0g8" cx=".5" cy=".5" fx=".33" fy=".33" r=".66"><stop offset="0%" stop-color="#ffffff"/><stop offset="40%" stop-color="#ffffff"/><stop offset="100%" stop-color="#a98b90"/></radialGradient>
    <radialGradient id="x0g9" cx=".5" cy=".5" fx=".33" fy=".33" r=".66"><stop offset="0%" stop-color="#5b9bec"/><stop offset="40%" stop-color="#3050f8"/><stop offset="100%" stop-color="#041a9e"/></radialGradient>
    <radialGradient id="x0g10" cx=".5" cy=".5" fx=".33" fy=".33" r=".66"><stop offset="0%" stop-color="#ffffff"/><stop offset="40%" stop-color="#ffffff"/><stop offset="100%" stop-color="#a7888e"/></radialGradient>
    <radialGradient id="x0g11" cx=".5" cy=".5" fx=".33" fy=".33" r=".66"><stop offset="0%" stop-color="#ffffff"/><stop offset="40%" stop-color="#ffffff"/><stop offset="100%" stop-color="#9d7b81"/></radialGradient>
    <radialGradient id="x0g12" cx=".5" cy=".5" fx=".33" fy=".33" r=".66"><stop offset="0%" stop-color="#ef5240"/><stop offset="40%" stop-color="#ff0d0d"/><stop offset="100%" stop-color="#93001d"/></radialGradient>
    <radialGradient id="x0g13" cx=".5" cy=".5" fx=".33" fy=".33" r=".66"><stop offset="0%" stop-color="#71a8ee"/><stop offset="40%" stop-color="#4c68f8"/><stop offset="100%" stop-color="#2639ab"/></radialGradient>
    <radialGradient id="x0g14" cx=".5" cy=".5" fx=".33" fy=".33" r=".66"><stop offset="0%" stop-color="#ffffff"/><stop offset="40%" stop-color="#ffffff"/><stop offset="100%" stop-color="#c9b6b9"/></radialGradient>
    <radialGradient id="x0g15" cx=".5" cy=".5" fx=".33" fy=".33" r=".66"><stop offset="0%" stop-color="#ffffff"/><stop offset="40%" stop-color="#ffffff"/><stop offset="100%" stop-color="#c6b2b6"/></radialGradient>
    <radialGradient id="x0g16" cx=".5" cy=".5" fx=".33" fy=".33" r=".66"><stop offset="0%" stop-color="#ffffff"/><stop offset="40%" stop-color="#ffffff"/><stop offset="100%" stop-color="#a4848a"/></radialGradient>
  </defs>
  <defs>
    <radialGradient id="x0vg1" cx=".5" cy=".5" fx=".33" fy=".33" r=".66"><stop offset="0%" stop-color="#ffffff"/><stop offset="100%" stop-color="#583641"/></radialGradient>
    <radialGradient id="x0vg8" cx=".5" cy=".5" fx=".33" fy=".33" r=".66"><stop offset="0%" stop-color="#ff0d0d"/><stop offset="100%" stop-color="#4b0018"/></radialGradient>
    <radialGradient id="x0vg7" cx=".5" cy=".5" fx=".33" fy=".33" r=".66"><stop offset="0%" stop-color="#3050f8"/><stop offset="100%" stop-color="#020c50"/></radialGradient>
    <radialGradient id="x0vg6" cx=".5" cy=".5" fx=".33" fy=".33" r=".66"><stop offset="0%" stop-color="#aaaaaa"/><stop offset="100%" stop-color="#3b242b"/></radialGradient>
  </defs>
  <circle cx="391.3" cy="254.6" r="13.4" fill="url(#x0g14)" stroke="#a4a4a4" stroke-width="4.5"/>
  <line x1="390.7" y1="250.3" x2="388.5" y2="234.3" stroke="#333333" stroke-width="11.2" stroke-linecap="round"/>
  <circle cx="234.8" cy="315.3" r="13.4" fill="url(#x0g15)" stroke="#999999" stroke-width="4.5"/>
  <line x1="231.9" y1="309.6" x2="223.3" y2="291.9" stroke="#353535" stroke-width="11.2" stroke-linecap="round"/>
  <circle cx="648.0" cy="267.0" r="13.4" fill="url(#x0g5)" stroke="#888888" stroke-width="4.5"/>
  <line x1="636.4" y1="270.0" x2="602.8" y2="278.7" stroke="#464646" stroke-width="11.2" stroke-linecap="round"/>
  <circle cx="583.1" cy="283.8" r="22.9" fill="url(#x0g4)" stroke="#737373" stroke-width="4.5"/>
  <line x1="577.6" y1="278.4" x2="563.3" y2="264.7" stroke="#191919" stroke-width="11.2" stroke-linecap="round"/>
  <circle cx="218.3" cy="281.6" r="24.0" fill="url(#x0g13)" stroke="#323232" stroke-width="4.5"/>
  <line x1="233.0" y1="269.6" x2="270.6" y2="239.2" stroke="#0e0e0e" stroke-width="11.2" stroke-linecap="round"/>
  <line x1="197.7" y1="281.8" x2="162.5" y2="282.2" stroke="#151515" stroke-width="11.2" stroke-linecap="round"/>
  <circle cx="411.7" cy="151.1" r="13.4" fill="url(#x0g8)" stroke="#2d2d2d" stroke-width="4.5"/>
  <line x1="408.0" y1="162.5" x2="394.4" y2="204.3" stroke="#171717" stroke-width="11.2" stroke-linecap="round"/>
  <circle cx="387.3" cy="226.0" r="25.5" fill="url(#x0g6)" stroke="#272727" stroke-width="4.5"/>
  <line x1="401.4" y1="237.6" x2="440.3" y2="269.5" stroke="#060606" stroke-width="11.2" stroke-linecap="round"/>
  <line x1="365.8" y1="226.1" x2="307.8" y2="226.4" stroke="#0b0b0b" stroke-width="11.2" stroke-linecap="round"/>
  <circle cx="438.7" cy="410.9" r="13.4" fill="url(#x0g10)" stroke="#262626" stroke-width="4.5"/>
  <line x1="439.1" y1="406.6" x2="440.4" y2="393.3" stroke="#050505" stroke-width="11.2" stroke-linecap="round"/>
  <circle cx="151.0" cy="282.3" r="13.4" fill="url(#x0g16)" stroke="#1a1a1a" stroke-width="4.5"/>
  <circle cx="286.3" cy="226.5" r="25.5" fill="url(#x0g7)" stroke="#080808" stroke-width="4.5"/>
  <line x1="273.5" y1="218.4" x2="260.2" y2="196.5" stroke="#010101" stroke-width="7.9" stroke-linecap="round"/>
  <line x1="285.0" y1="211.4" x2="271.7" y2="189.5" stroke="#010101" stroke-width="7.9" stroke-linecap="round"/>
  <circle cx="557.1" cy="258.7" r="25.5" fill="url(#x0g2)" stroke="#070707" stroke-width="4.5"/>
  <line x1="535.4" y1="263.4" x2="476.0" y2="276.3" stroke="#010101" stroke-width="11.2" stroke-linecap="round"/>
  <line x1="569.5" y1="242.7" x2="599.7" y2="223.4" stroke="#010101" stroke-width="7.9" stroke-linecap="round"/>
  <line x1="576.8" y1="254.1" x2="607.0" y2="234.8" stroke="#010101" stroke-width="7.9" stroke-linecap="round"/>
  <circle cx="454.3" cy="281.0" r="25.5" fill="url(#x0g1)" stroke="#000000" stroke-width="4.5"/>
  <line x1="451.0" y1="273.8" x2="444.6" y2="259.8" stroke="#000000" stroke-width="11.2" stroke-linecap="round"/>
  <line x1="451.4" y1="303.8" x2="443.8" y2="364.2" stroke="#000000" stroke-width="11.2" stroke-linecap="round"/>
  <circle cx="441.1" cy="385.6" r="24.0" fill="url(#x0g9)" stroke="#000000" stroke-width="4.5"/>
  <line x1="422.8" y1="390.5" x2="391.1" y2="399.1" stroke="#000000" stroke-width="11.2" stroke-linecap="round"/>
  <circle cx="617.9" cy="219.8" r="22.9" fill="url(#x0g3)" stroke="#000000" stroke-width="4.5"/>
  <circle cx="380.8" cy="401.8" r="13.4" fill="url(#x0g11)" stroke="#000000" stroke-width="4.5"/>
  <circle cx="259.7" cy="182.7" r="22.9" fill="url(#x0g12)" stroke="#000000" stroke-width="4.5"/>
  <circle cx="442.8" cy="256.0" r="13.4" fill="url(#x0g0)" stroke="#000000" stroke-width="4.5"/>
  <g opacity="0.25">
    <circle cx="391.3" cy="254.6" r="73.7" fill="url(#x0vg1)"/>
    <circle cx="234.8" cy="315.3" r="73.7" fill="url(#x0vg1)"/>
    <circle cx="648.0" cy="267.0" r="73.7" fill="url(#x0vg1)"/>
    <circle cx="583.1" cy="283.8" r="116.0" fill="url(#x0vg8)"/>
    <circle cx="218.3" cy="281.6" r="121.7" fill="url(#x0vg7)"/>
    <circle cx="411.7" cy="151.1" r="73.7" fill="url(#x0vg1)"/>
    <circle cx="387.3" cy="226.0" r="129.3" fill="url(#x0vg6)"/>
    <circle cx="438.7" cy="410.9" r="73.7" fill="url(#x0vg1)"/>
    <circle cx="151.0" cy="282.3" r="73.7" fill="url(#x0vg1)"/>
    <circle cx="286.3" cy="226.5" r="129.3" fill="url(#x0vg6)"/>
    <circle cx="557.1" cy="258.7" r="129.3" fill="url(#x0vg6)"/>
    <circle cx="454.3" cy="281.0" r="129.3" fill="url(#x0vg6)"/>
    <circle cx="441.1" cy="385.6" r="121.7" fill="url(#x0vg7)"/>
    <circle cx="617.9" cy="219.8" r="116.0" fill="url(#x0vg8)"/>
    <circle cx="380.8" cy="401.8" r="73.7" fill="url(#x0vg1)"/>
    <circle cx="259.7" cy="182.7" r="116.0" fill="url(#x0vg8)"/>
    <circle cx="442.8" cy="256.0" r="73.7" fill="url(#x0vg1)"/>
  </g>
</svg>