<svg xmlns="http://www.w3.org/2000/svg" xmlns:xlink="http://www.w3.org/1999/xlink" viewBox="0 0 800 684" width="800" height="684">
  <rect width="100%" height="100%" fill="#ffffff"/>
  <defs>
    <radialGradient id="x0g26_e06633_efd0" cx=".5" cy=".5" fx=".33" fy=".33" r=".66"><stop offset="0%" stop-color="#de7947"/><stop offset="40%" stop-color="#e06633"/><stop offset="100%" stop-color="#b6361a"/></radialGradient>
    <radialGradient id="x0g25_9c7ac7_efd0" cx=".5" cy=".5" fx=".33" fy=".33" r=".66"><stop offset="0%" stop-color="#ac86c9"/><stop offset="40%" stop-color="#9c7ac7"/><stop offset="100%" stop-color="#7144af"/></radialGradient>
    <radialGradient id="x0g15_ff8000_f4d0" cx=".5" cy=".5" fx=".33" fy=".33" r=".66"><stop offset="0%" stop-color="#f98f1a"/><stop offset="40%" stop-color="#ff8000"/><stop offset="100%" stop-color="#c14900"/></radialGradient>
    <radialGradient id="x0g8_ff0d0d_f4d0" cx=".5" cy=".5" fx=".33" fy=".33" r=".66"><stop offset="0%" stop-color="#f93025"/><stop offset="40%" stop-color="#ff0d0d"/><stop offset="100%" stop-color="#cb0014"/></radialGradient>
    <radialGradient id="x0g7_3050f8_f4d0" cx=".5" cy=".5" fx=".33" fy=".33" r=".66"><stop offset="0%" stop-color="#4579f3"/><stop offset="40%" stop-color="#3050f8"/><stop offset="100%" stop-color="#0627d9"/></radialGradient>
    <radialGradient id="x0g6_aaaaaa_f4d0" cx=".5" cy=".5" fx=".33" fy=".33" r=".66"><stop offset="0%" stop-color="#b0b0b0"/><stop offset="40%" stop-color="#aaaaaa"/><stop offset="100%" stop-color="#877a7c"/></radialGradient>
    <radialGradient id="x0g1_ffffff_f4d0" cx=".5" cy=".5" fx=".33" fy=".33" r=".66"><stop offset="0%" stop-color="#ffffff"/><stop offset="40%" stop-color="#ffffff"/><stop offset="100%" stop-color="#c4bebf"/></radialGradient>
  </defs>
  <line x1="154.8" y1="339.2" x2="158.0" y2="347.0" stroke="#000000" stroke-width="26.0" stroke-linecap="round"/>
  <line x1="158.0" y1="347.0" x2="164.0" y2="361.7" stroke="#000000" stroke-width="26.0" stroke-linecap="round"/>
  <line x1="401.5" y1="421.5" x2="407.4" y2="401.4" stroke="#000000" stroke-width="26.0" stroke-linecap="round"/>
  <line x1="407.4" y1="401.4" x2="413.9" y2="379.0" stroke="#000000" stroke-width="26.0" stroke-linecap="round"/>
  <line x1="164.0" y1="361.7" x2="109.9" y2="405.5" stroke="#000000" stroke-width="26.0" stroke-linecap="round"/>
  <line x1="164.0" y1="361.7" x2="230.2" y2="346.4" stroke="#000000" stroke-width="26.0" stroke-linecap="round"/>
  <line x1="58.1" y1="417.5" x2="76.0" y2="413.4" stroke="#000000" stroke-width="26.0" stroke-linecap="round"/>
  <line x1="76.0" y1="413.4" x2="109.9" y2="405.5" stroke="#000000" stroke-width="26.0" stroke-linecap="round"/>
  <line x1="271.7" y1="312.0" x2="257.4" y2="323.8" stroke="#000000" stroke-width="26.0" stroke-linecap="round"/>
  <line x1="257.4" y1="323.8" x2="230.2" y2="346.4" stroke="#000000" stroke-width="26.0" stroke-linecap="round"/>
  <line x1="357.8" y1="199.2" x2="370.5" y2="221.3" stroke="#000000" stroke-width="26.0" stroke-linecap="round"/>
  <line x1="370.5" y1="221.3" x2="384.6" y2="245.9" stroke="#000000" stroke-width="26.0" stroke-linecap="round"/>
  <line x1="675.3" y1="162.3" x2="678.2" y2="160.0" stroke="#000000" stroke-width="26.0" stroke-linecap="round"/>
  <line x1="678.2" y1="160.0" x2="683.8" y2="155.6" stroke="#000000" stroke-width="26.0" stroke-linecap="round"/>
  <line x1="413.9" y1="379.0" x2="418.8" y2="361.0" stroke="#000000" stroke-width="26.0" stroke-linecap="round"/>
  <line x1="418.8" y1="361.0" x2="425.0" y2="337.7" stroke="#000000" stroke-width="26.0" stroke-linecap="round"/>
  <line x1="109.9" y1="405.5" x2="122.6" y2="434.3" stroke="#000000" stroke-width="26.0" stroke-linecap="round"/>
  <line x1="230.2" y1="346.4" x2="243.3" y2="374.6" stroke="#000000" stroke-width="26.0" stroke-linecap="round"/>
  <line x1="509.1" y1="301.5" x2="515.7" y2="260.8" stroke="#000000" stroke-width="26.0" stroke-linecap="round"/>
  <line x1="509.1" y1="301.5" x2="494.8" y2="304.0" stroke="#000000" stroke-width="26.0" stroke-linecap="round"/>
  <line x1="494.8" y1="304.0" x2="459.6" y2="310.2" stroke="#000000" stroke-width="26.0" stroke-linecap="round"/>
  <line x1="384.6" y1="245.9" x2="397.7" y2="265.5" stroke="#000000" stroke-width="26.0" stroke-linecap="round"/>
  <line x1="397.7" y1="265.5" x2="414.6" y2="290.7" stroke="#000000" stroke-width="26.0" stroke-linecap="round"/>
  <line x1="509.3" y1="466.5" x2="516.6" y2="459.8" stroke="#000000" stroke-width="26.0" stroke-linecap="round"/>
  <line x1="516.6" y1="459.8" x2="530.5" y2="447.1" stroke="#000000" stroke-width="26.0" stroke-linecap="round"/>
  <line x1="240.2" y1="173.6" x2="229.2" y2="169.2" stroke="#000000" stroke-width="26.0" stroke-linecap="round"/>
  <line x1="229.2" y1="169.2" x2="208.1" y2="160.9" stroke="#000000" stroke-width="26.0" stroke-linecap="round"/>
  <line x1="683.8" y1="155.6" x2="721.8" y2="164.8" stroke="#000000" stroke-width="26.0" stroke-linecap="round"/>
  <line x1="721.8" y1="164.8" x2="741.9" y2="169.6" stroke="#000000" stroke-width="26.0" stroke-linecap="round"/>
  <line x1="683.8" y1="155.6" x2="677.9" y2="117.1" stroke="#000000" stroke-width="26.0" stroke-linecap="round"/>
  <line x1="677.9" y1="117.1" x2="674.9" y2="96.8" stroke="#000000" stroke-width="26.0" stroke-linecap="round"/>
  <line x1="683.8" y1="155.6" x2="630.3" y2="204.2" stroke="#000000" stroke-width="26.0" stroke-linecap="round"/>
  <line x1="452.4" y1="335.8" x2="481.0" y2="363.2" stroke="#000000" stroke-width="26.0" stroke-linecap="round"/>
  <line x1="481.0" y1="363.2" x2="501.8" y2="383.3" stroke="#000000" stroke-width="26.0" stroke-linecap="round"/>
  <line x1="403.1" y1="325.3" x2="363.6" y2="339.6" stroke="#000000" stroke-width="26.0" stroke-linecap="round"/>
  <line x1="363.6" y1="339.6" x2="329.4" y2="351.9" stroke="#000000" stroke-width="26.0" stroke-linecap="round"/>
  <line x1="439.5" y1="294.7" x2="451.0" y2="266.6" stroke="#000000" stroke-width="26.0" stroke-linecap="round"/>
  <line x1="451.0" y1="266.6" x2="459.4" y2="246.1" stroke="#000000" stroke-width="26.0" stroke-linecap="round"/>
  <line x1="122.6" y1="434.3" x2="95.2" y2="457.1" stroke="#000000" stroke-width="26.0" stroke-linecap="round"/>
  <line x1="95.2" y1="457.1" x2="80.8" y2="469.1" stroke="#000000" stroke-width="26.0" stroke-linecap="round"/>
  <line x1="122.6" y1="434.3" x2="188.9" y2="419.3" stroke="#000000" stroke-width="26.0" stroke-linecap="round"/>
  <line x1="556.9" y1="185.8" x2="591.6" y2="194.5" stroke="#000000" stroke-width="26.0" stroke-linecap="round"/>
  <line x1="591.6" y1="194.5" x2="630.3" y2="204.2" stroke="#000000" stroke-width="26.0" stroke-linecap="round"/>
  <line x1="556.9" y1="185.8" x2="529.6" y2="202.5" stroke="#000000" stroke-width="26.0" stroke-linecap="round"/>
  <line x1="529.6" y1="202.5" x2="513.5" y2="212.3" stroke="#000000" stroke-width="26.0" stroke-linecap="round"/>
  <line x1="243.3" y1="374.6" x2="188.9" y2="419.3" stroke="#000000" stroke-width="26.0" stroke-linecap="round"/>
  <line x1="243.3" y1="374.6" x2="283.9" y2="363.9" stroke="#000000" stroke-width="26.0" stroke-linecap="round"/>
  <line x1="283.9" y1="363.9" x2="329.4" y2="351.9" stroke="#000000" stroke-width="26.0" stroke-linecap="round"/>
  <line x1="345.7" y1="503.8" x2="347.7" y2="504.1" stroke="#000000" stroke-width="26.0" stroke-linecap="round"/>
  <line x1="347.7" y1="504.1" x2="351.6" y2="504.7" stroke="#000000" stroke-width="26.0" stroke-linecap="round"/>
  <line x1="642.5" y1="263.3" x2="638.3" y2="242.9" stroke="#000000" stroke-width="26.0" stroke-linecap="round"/>
  <line x1="638.3" y1="242.9" x2="630.3" y2="204.2" stroke="#000000" stroke-width="26.0" stroke-linecap="round"/>
  <line x1="630.3" y1="204.2" x2="638.3" y2="200.3" stroke="#000000" stroke-width="26.0" stroke-linecap="round"/>
  <line x1="638.3" y1="200.3" x2="642.5" y2="198.3" stroke="#000000" stroke-width="26.0" stroke-linecap="round"/>
  <line x1="208.1" y1="160.9" x2="147.4" y2="203.0" stroke="#000000" stroke-width="26.0" stroke-linecap="round"/>
  <line x1="208.1" y1="160.9" x2="220.6" y2="99.9" stroke="#000000" stroke-width="26.0" stroke-linecap="round"/>
  <line x1="208.1" y1="160.9" x2="215.1" y2="172.2" stroke="#000000" stroke-width="26.0" stroke-linecap="round"/>
  <line x1="215.1" y1="172.2" x2="224.0" y2="186.7" stroke="#000000" stroke-width="26.0" stroke-linecap="round"/>
  <line x1="530.5" y1="447.1" x2="515.7" y2="414.2" stroke="#000000" stroke-width="26.0" stroke-linecap="round"/>
  <line x1="515.7" y1="414.2" x2="501.8" y2="383.3" stroke="#000000" stroke-width="26.0" stroke-linecap="round"/>
  <line x1="530.5" y1="447.1" x2="584.5" y2="486.8" stroke="#000000" stroke-width="26.0" stroke-linecap="round"/>
  <line x1="125.0" y1="253.6" x2="132.7" y2="236.2" stroke="#000000" stroke-width="26.0" stroke-linecap="round"/>
  <line x1="132.7" y1="236.2" x2="147.4" y2="203.0" stroke="#000000" stroke-width="26.0" stroke-linecap="round"/>
  <line x1="188.9" y1="419.3" x2="195.1" y2="435.0" stroke="#000000" stroke-width="26.0" stroke-linecap="round"/>
  <line x1="195.1" y1="435.0" x2="198.3" y2="443.2" stroke="#000000" stroke-width="26.0" stroke-linecap="round"/>
  <line x1="605.8" y1="538.1" x2="598.4" y2="520.4" stroke="#000000" stroke-width="26.0" stroke-linecap="round"/>
  <line x1="598.4" y1="520.4" x2="584.5" y2="486.8" stroke="#000000" stroke-width="26.0" stroke-linecap="round"/>
  <line x1="513.5" y1="212.3" x2="494.1" y2="224.4" stroke="#000000" stroke-width="26.0" stroke-linecap="round"/>
  <line x1="494.1" y1="224.4" x2="459.4" y2="246.1" stroke="#000000" stroke-width="26.0" stroke-linecap="round"/>
  <line x1="147.4" y1="203.0" x2="122.3" y2="167.8" stroke="#000000" stroke-width="26.0" stroke-linecap="round"/>
  <line x1="147.4" y1="203.0" x2="173.0" y2="201.4" stroke="#000000" stroke-width="26.0" stroke-linecap="round"/>
  <line x1="173.0" y1="201.4" x2="205.7" y2="199.3" stroke="#000000" stroke-width="26.0" stroke-linecap="round"/>
  <line x1="501.8" y1="383.3" x2="513.7" y2="370.5" stroke="#000000" stroke-width="26.0" stroke-linecap="round"/>
  <line x1="513.7" y1="370.5" x2="526.3" y2="357.0" stroke="#000000" stroke-width="26.0" stroke-linecap="round"/>
  <line x1="386.9" y1="163.0" x2="393.8" y2="171.7" stroke="#000000" stroke-width="26.0" stroke-linecap="round"/>
  <line x1="393.8" y1="171.7" x2="406.9" y2="188.3" stroke="#000000" stroke-width="26.0" stroke-linecap="round"/>
  <line x1="329.4" y1="351.9" x2="337.1" y2="397.8" stroke="#000000" stroke-width="26.0" stroke-linecap="round"/>
  <line x1="337.1" y1="397.8" x2="344.0" y2="438.8" stroke="#000000" stroke-width="26.0" stroke-linecap="round"/>
  <line x1="329.4" y1="351.9" x2="314.1" y2="317.3" stroke="#000000" stroke-width="26.0" stroke-linecap="round"/>
  <line x1="314.1" y1="317.3" x2="300.4" y2="286.4" stroke="#000000" stroke-width="26.0" stroke-linecap="round"/>
  <line x1="584.5" y1="486.8" x2="610.7" y2="459.5" stroke="#000000" stroke-width="26.0" stroke-linecap="round"/>
  <line x1="263.6" y1="57.9" x2="248.8" y2="72.4" stroke="#000000" stroke-width="26.0" stroke-linecap="round"/>
  <line x1="248.8" y1="72.4" x2="220.6" y2="99.9" stroke="#000000" stroke-width="26.0" stroke-linecap="round"/>
  <line x1="351.6" y1="504.7" x2="365.9" y2="571.6" stroke="#000000" stroke-width="26.0" stroke-linecap="round"/>
  <line x1="351.6" y1="504.7" x2="344.0" y2="438.8" stroke="#000000" stroke-width="26.0" stroke-linecap="round"/>
  <line x1="371.2" y1="622.4" x2="369.4" y2="604.9" stroke="#000000" stroke-width="26.0" stroke-linecap="round"/>
  <line x1="369.4" y1="604.9" x2="365.9" y2="571.6" stroke="#000000" stroke-width="26.0" stroke-linecap="round"/>
  <line x1="220.6" y1="99.9" x2="223.7" y2="130.0" stroke="#000000" stroke-width="26.0" stroke-linecap="round"/>
  <line x1="223.7" y1="130.0" x2="227.7" y2="168.4" stroke="#000000" stroke-width="26.0" stroke-linecap="round"/>
  <line x1="220.6" y1="99.9" x2="167.7" y2="104.1" stroke="#000000" stroke-width="26.0" stroke-linecap="round"/>
  <line x1="459.4" y1="246.1" x2="433.9" y2="218.1" stroke="#000000" stroke-width="26.0" stroke-linecap="round"/>
  <line x1="433.9" y1="218.1" x2="406.9" y2="188.3" stroke="#000000" stroke-width="26.0" stroke-linecap="round"/>
  <line x1="459.4" y1="246.1" x2="473.9" y2="266.6" stroke="#000000" stroke-width="26.0" stroke-linecap="round"/>
  <line x1="473.9" y1="266.6" x2="489.3" y2="288.3" stroke="#000000" stroke-width="26.0" stroke-linecap="round"/>
  <line x1="365.9" y1="571.6" x2="373.6" y2="573.6" stroke="#000000" stroke-width="26.0" stroke-linecap="round"/>
  <line x1="406.9" y1="188.3" x2="340.2" y2="219.4" stroke="#000000" stroke-width="26.0" stroke-linecap="round"/>
  <line x1="406.9" y1="188.3" x2="445.0" y2="126.6" stroke="#000000" stroke-width="26.0" stroke-linecap="round"/>
  <line x1="344.0" y1="438.8" x2="352.1" y2="441.4" stroke="#000000" stroke-width="26.0" stroke-linecap="round"/>
  <line x1="526.3" y1="357.0" x2="489.3" y2="288.3" stroke="#000000" stroke-width="26.0" stroke-linecap="round"/>
  <line x1="526.3" y1="357.0" x2="581.1" y2="393.8" stroke="#000000" stroke-width="26.0" stroke-linecap="round"/>
  <line x1="122.3" y1="167.8" x2="155.7" y2="177.0" stroke="#000000" stroke-width="26.0" stroke-linecap="round"/>
  <line x1="155.7" y1="177.0" x2="198.2" y2="188.7" stroke="#000000" stroke-width="26.0" stroke-linecap="round"/>
  <line x1="122.3" y1="167.8" x2="167.7" y2="104.1" stroke="#000000" stroke-width="26.0" stroke-linecap="round"/>
  <line x1="122.3" y1="167.8" x2="92.9" y2="180.3" stroke="#000000" stroke-width="26.0" stroke-linecap="round"/>
  <line x1="92.9" y1="180.3" x2="77.5" y2="186.9" stroke="#000000" stroke-width="26.0" stroke-linecap="round"/>
  <line x1="493.6" y1="107.0" x2="476.8" y2="113.8" stroke="#000000" stroke-width="26.0" stroke-linecap="round"/>
  <line x1="476.8" y1="113.8" x2="445.0" y2="126.6" stroke="#000000" stroke-width="26.0" stroke-linecap="round"/>
  <line x1="300.4" y1="286.4" x2="279.0" y2="259.1" stroke="#000000" stroke-width="26.0" stroke-linecap="round"/>
  <line x1="279.0" y1="259.1" x2="251.7" y2="224.4" stroke="#000000" stroke-width="26.0" stroke-linecap="round"/>
  <line x1="300.4" y1="286.4" x2="340.2" y2="219.4" stroke="#000000" stroke-width="26.0" stroke-linecap="round"/>
  <line x1="300.4" y1="286.4" x2="241.5" y2="295.6" stroke="#000000" stroke-width="26.0" stroke-linecap="round"/>
  <line x1="211.8" y1="169.6" x2="187.1" y2="132.9" stroke="#000000" stroke-width="26.0" stroke-linecap="round"/>
  <line x1="187.1" y1="132.9" x2="167.7" y2="104.1" stroke="#000000" stroke-width="26.0" stroke-linecap="round"/>
  <line x1="263.5" y1="204.2" x2="306.5" y2="212.7" stroke="#000000" stroke-width="26.0" stroke-linecap="round"/>
  <line x1="306.5" y1="212.7" x2="340.2" y2="219.4" stroke="#000000" stroke-width="26.0" stroke-linecap="round"/>
  <line x1="234.0" y1="227.4" x2="238.2" y2="265.6" stroke="#000000" stroke-width="26.0" stroke-linecap="round"/>
  <line x1="238.2" y1="265.6" x2="241.5" y2="295.6" stroke="#000000" stroke-width="26.0" stroke-linecap="round"/>
  <line x1="253.3" y1="195.3" x2="282.7" y2="192.1" stroke="#000000" stroke-width="26.0" stroke-linecap="round"/>
  <line x1="282.7" y1="192.1" x2="305.9" y2="189.6" stroke="#000000" stroke-width="26.0" stroke-linecap="round"/>
  <line x1="235.2" y1="209.3" x2="241.0" y2="224.4" stroke="#000000" stroke-width="26.0" stroke-linecap="round"/>
  <line x1="241.0" y1="224.4" x2="245.5" y2="236.2" stroke="#000000" stroke-width="26.0" stroke-linecap="round"/>
  <line x1="167.7" y1="104.1" x2="164.9" y2="79.3" stroke="#000000" stroke-width="26.0" stroke-linecap="round"/>
  <line x1="164.9" y1="79.3" x2="163.5" y2="66.2" stroke="#000000" stroke-width="26.0" stroke-linecap="round"/>
  <line x1="610.7" y1="459.5" x2="581.1" y2="393.8" stroke="#000000" stroke-width="26.0" stroke-linecap="round"/>
  <line x1="610.7" y1="459.5" x2="638.7" y2="478.8" stroke="#000000" stroke-width="26.0" stroke-linecap="round"/>
  <line x1="638.7" y1="478.8" x2="653.5" y2="489.0" stroke="#000000" stroke-width="26.0" stroke-linecap="round"/>
  <line x1="489.3" y1="288.3" x2="515.0" y2="267.1" stroke="#000000" stroke-width="26.0" stroke-linecap="round"/>
  <line x1="515.0" y1="267.1" x2="528.6" y2="255.9" stroke="#000000" stroke-width="26.0" stroke-linecap="round"/>
  <line x1="489.3" y1="288.3" x2="460.1" y2="299.7" stroke="#000000" stroke-width="26.0" stroke-linecap="round"/>
  <line x1="460.1" y1="299.7" x2="444.8" y2="305.7" stroke="#000000" stroke-width="26.0" stroke-linecap="round"/>
  <line x1="340.2" y1="219.4" x2="305.9" y2="189.6" stroke="#000000" stroke-width="26.0" stroke-linecap="round"/>
  <line x1="445.0" y1="126.6" x2="420.4" y2="95.6" stroke="#000000" stroke-width="26.0" stroke-linecap="round"/>
  <line x1="420.4" y1="95.6" x2="407.4" y2="79.3" stroke="#000000" stroke-width="26.0" stroke-linecap="round"/>
  <line x1="445.0" y1="126.6" x2="457.0" y2="138.8" stroke="#000000" stroke-width="26.0" stroke-linecap="round"/>
  <line x1="457.0" y1="138.8" x2="463.3" y2="145.1" stroke="#000000" stroke-width="26.0" stroke-linecap="round"/>
  <line x1="581.1" y1="393.8" x2="593.4" y2="378.4" stroke="#000000" stroke-width="26.0" stroke-linecap="round"/>
  <line x1="593.4" y1="378.4" x2="599.9" y2="370.3" stroke="#000000" stroke-width="26.0" stroke-linecap="round"/>
  <line x1="241.5" y1="295.6" x2="215.1" y2="325.0" stroke="#000000" stroke-width="26.0" stroke-linecap="round"/>
  <line x1="215.1" y1="325.0" x2="201.2" y2="340.5" stroke="#000000" stroke-width="26.0" stroke-linecap="round"/>
  <line x1="241.5" y1="295.6" x2="245.5" y2="236.2" stroke="#000000" stroke-width="26.0" stroke-linecap="round"/>
  <line x1="373.6" y1="573.6" x2="381.0" y2="608.0" stroke="#000000" stroke-width="26.0" stroke-linecap="round"/>
  <line x1="381.0" y1="608.0" x2="384.9" y2="626.1" stroke="#000000" stroke-width="26.0" stroke-linecap="round"/>
  <line x1="373.6" y1="573.6" x2="366.8" y2="508.4" stroke="#000000" stroke-width="26.0" stroke-linecap="round"/>
  <line x1="352.1" y1="441.4" x2="348.2" y2="408.3" stroke="#000000" stroke-width="26.0" stroke-linecap="round"/>
  <line x1="348.2" y1="408.3" x2="346.1" y2="390.9" stroke="#000000" stroke-width="26.0" stroke-linecap="round"/>
  <line x1="352.1" y1="441.4" x2="366.8" y2="508.4" stroke="#000000" stroke-width="26.0" stroke-linecap="round"/>
  <line x1="305.9" y1="189.6" x2="245.5" y2="236.2" stroke="#000000" stroke-width="26.0" stroke-linecap="round"/>
  <line x1="305.9" y1="189.6" x2="316.4" y2="156.3" stroke="#000000" stroke-width="26.0" stroke-linecap="round"/>
  <line x1="316.4" y1="156.3" x2="321.9" y2="138.8" stroke="#000000" stroke-width="26.0" stroke-linecap="round"/>
  <line x1="366.8" y1="508.4" x2="370.7" y2="509.1" stroke="#000000" stroke-width="26.0" stroke-linecap="round"/>
  <line x1="370.7" y1="509.1" x2="372.7" y2="509.5" stroke="#000000" stroke-width="26.0" stroke-linecap="round"/>
  <line x1="245.5" y1="236.2" x2="220.9" y2="230.2" stroke="#000000" stroke-width="26.0" stroke-linecap="round"/>
  <line x1="220.9" y1="230.2" x2="208.0" y2="227.1" stroke="#000000" stroke-width="26.0" stroke-linecap="round"/>
  <circle cx="154.8" cy="339.2" r="0.0" fill="url(#x0g1_ffffff_f4d0)" stroke="black" stroke-width="0.0"/>
  <line x1="154.8" y1="339.2" x2="158.0" y2="347.0" stroke="#ffffff" stroke-width="21.7" stroke-linecap="round"/>
  <line x1="158.0" y1="347.0" x2="164.0" y2="361.7" stroke="#aaaaaa" stroke-width="21.7" stroke-linecap="round"/>
  <circle cx="401.5" cy="421.5" r="0.0" fill="url(#x0g8_ff0d0d_f4d0)" stroke="black" stroke-width="0.0"/>
  <line x1="401.5" y1="421.5" x2="407.4" y2="401.4" stroke="#ff0d0d" stroke-width="21.7" stroke-linecap="round"/>
  <line x1="407.4" y1="401.4" x2="413.9" y2="379.0" stroke="#aaaaaa" stroke-width="21.7" stroke-linecap="round"/>
  <circle cx="164.0" cy="361.7" r="0.0" fill="url(#x0g6_aaaaaa_f4d0)" stroke="black" stroke-width="0.0"/>
  <line x1="164.0" y1="361.7" x2="109.9" y2="405.5" stroke="#aaaaaa" stroke-width="21.7" stroke-linecap="round"/>
  <line x1="164.0" y1="361.7" x2="230.2" y2="346.4" stroke="#aaaaaa" stroke-width="21.7" stroke-linecap="round"/>
  <circle cx="58.1" cy="417.5" r="0.0" fill="url(#x0g1_ffffff_f4d0)" stroke="black" stroke-width="0.0"/>
  <line x1="58.1" y1="417.5" x2="76.0" y2="413.4" stroke="#ffffff" stroke-width="21.7" stroke-linecap="round"/>
  <line x1="76.0" y1="413.4" x2="109.9" y2="405.5" stroke="#aaaaaa" stroke-width="21.7" stroke-linecap="round"/>
  <circle cx="271.7" cy="312.0" r="0.0" fill="url(#x0g1_ffffff_f4d0)" stroke="black" stroke-width="0.0"/>
  <line x1="271.7" y1="312.0" x2="257.4" y2="323.8" stroke="#ffffff" stroke-width="21.7" stroke-linecap="round"/>
  <line x1="257.4" y1="323.8" x2="230.2" y2="346.4" stroke="#aaaaaa" stroke-width="21.7" stroke-linecap="round"/>
  <circle cx="357.8" cy="199.2" r="0.0" fill="url(#x0g8_ff0d0d_f4d0)" stroke="black" stroke-width="0.0"/>
  <line x1="357.8" y1="199.2" x2="370.5" y2="221.3" stroke="#ff0d0d" stroke-width="21.7" stroke-linecap="round"/>
  <line x1="370.5" y1="221.3" x2="384.6" y2="245.9" stroke="#aaaaaa" stroke-width="21.7" stroke-linecap="round"/>
  <circle cx="675.3" cy="162.3" r="0.0" fill="url(#x0g1_ffffff_f4d0)" stroke="black" stroke-width="0.0"/>
  <line x1="675.3" y1="162.3" x2="678.2" y2="160.0" stroke="#ffffff" stroke-width="21.7" stroke-linecap="round"/>
  <line x1="678.2" y1="160.0" x2="683.8" y2="155.6" stroke="#aaaaaa" stroke-width="21.7" stroke-linecap="round"/>
  <circle cx="413.9" cy="379.0" r="0.0" fill="url(#x0g6_aaaaaa_f4d0)" stroke="black" stroke-width="0.0"/>
  <line x1="413.9" y1="379.0" x2="418.8" y2="361.0" stroke="#aaaaaa" stroke-width="21.7" stroke-linecap="round"/>
  <line x1="418.8" y1="361.0" x2="425.0" y2="337.7" stroke="#9c7ac7" stroke-width="21.7" stroke-linecap="round"/>
  <circle cx="109.9" cy="405.5" r="0.0" fill="url(#x0g6_aaaaaa_f4d0)" stroke="black" stroke-width="0.0"/>
  <line x1="109.9" y1="405.5" x2="122.6" y2="434.3" stroke="#aaaaaa" stroke-width="21.7" stroke-linecap="round"/>
  <circle cx="230.2" cy="346.4" r="0.0" fill="url(#x0g6_aaaaaa_f4d0)" stroke="black" stroke-width="0.0"/>
  <line x1="230.2" y1="346.4" x2="243.3" y2="374.6" stroke="#aaaaaa" stroke-width="21.7" stroke-linecap="round"/>
  <circle cx="509.1" cy="301.5" r="0.0" fill="url(#x0g1_ffffff_f4d0)" stroke="black" stroke-width="0.0"/>
  <line x1="509.1" y1="301.5" x2="515.7" y2="260.8" stroke="#ffffff" stroke-width="21.7" stroke-linecap="round"/>
  <line x1="509.1" y1="301.5" x2="494.8" y2="304.0" stroke="#ffffff" stroke-width="21.7" stroke-linecap="round"/>
  <line x1="494.8" y1="304.0" x2="459.6" y2="310.2" stroke="#9c7ac7" stroke-width="21.7" stroke-linecap="round"/>
  <circle cx="384.6" cy="245.9" r="0.0" fill="url(#x0g6_aaaaaa_f4d0)" stroke="black" stroke-width="0.0"/>
  <line x1="384.6" y1="245.9" x2="397.7" y2="265.5" stroke="#aaaaaa" stroke-width="21.7" stroke-linecap="round"/>
  <line x1="397.7" y1="265.5" x2="414.6" y2="290.7" stroke="#9c7ac7" stroke-width="21.7" stroke-linecap="round"/>
  <circle cx="515.7" cy="260.8" r="0.0" fill="url(#x0g1_ffffff_f4d0)" stroke="black" stroke-width="0.0"/>
  <circle cx="509.3" cy="466.5" r="0.0" fill="url(#x0g1_ffffff_f4d0)" stroke="black" stroke-width="0.0"/>
  <line x1="509.3" y1="466.5" x2="516.6" y2="459.8" stroke="#ffffff" stroke-width="21.7" stroke-linecap="round"/>
  <line x1="516.6" y1="459.8" x2="530.5" y2="447.1" stroke="#aaaaaa" stroke-width="21.7" stroke-linecap="round"/>
  <circle cx="240.2" cy="173.6" r="0.0" fill="url(#x0g1_ffffff_f4d0)" stroke="black" stroke-width="0.0"/>
  <line x1="240.2" y1="173.6" x2="229.2" y2="169.2" stroke="#ffffff" stroke-width="21.7" stroke-linecap="round"/>
  <line x1="229.2" y1="169.2" x2="208.1" y2="160.9" stroke="#aaaaaa" stroke-width="21.7" stroke-linecap="round"/>
  <circle cx="683.8" cy="155.6" r="0.0" fill="url(#x0g6_aaaaaa_f4d0)" stroke="black" stroke-width="0.0"/>
  <line x1="683.8" y1="155.6" x2="721.8" y2="164.8" stroke="#aaaaaa" stroke-width="21.7" stroke-linecap="round"/>
  <line x1="721.8" y1="164.8" x2="741.9" y2="169.6" stroke="#ffffff" stroke-width="21.7" stroke-linecap="round"/>
  <line x1="683.8" y1="155.6" x2="677.9" y2="117.1" stroke="#aaaaaa" stroke-width="21.7" stroke-linecap="round"/>
  <line x1="677.9" y1="117.1" x2="674.9" y2="96.8" stroke="#ffffff" stroke-width="21.7" stroke-linecap="round"/>
  <line x1="683.8" y1="155.6" x2="630.3" y2="204.2" stroke="#aaaaaa" stroke-width="21.7" stroke-linecap="round"/>
  <circle cx="741.9" cy="169.6" r="0.0" fill="url(#x0g1_ffffff_f4d0)" stroke="black" stroke-width="0.0"/>
  <circle cx="674.9" cy="96.8" r="0.0" fill="url(#x0g1_ffffff_f4d0)" stroke="black" stroke-width="0.0"/>
  <circle cx="431.1" cy="315.3" r="38.1" fill="url(#x0g25_9c7ac7_efd0)" stroke="#000000" stroke-width="1.5"/>
  <line x1="452.4" y1="335.8" x2="481.0" y2="363.2" stroke="#9c7ac7" stroke-width="21.7" stroke-linecap="round"/>
  <line x1="481.0" y1="363.2" x2="501.8" y2="383.3" stroke="#3050f8" stroke-width="21.7" stroke-linecap="round"/>
  <line x1="403.1" y1="325.3" x2="363.6" y2="339.6" stroke="#9c7ac7" stroke-width="21.7" stroke-linecap="round"/>
  <line x1="363.6" y1="339.6" x2="329.4" y2="351.9" stroke="#ff8000" stroke-width="21.7" stroke-linecap="round"/>
  <line x1="439.5" y1="294.7" x2="451.0" y2="266.6" stroke="#9c7ac7" stroke-width="21.7" stroke-linecap="round"/>
  <line x1="451.0" y1="266.6" x2="459.4" y2="246.1" stroke="#3050f8" stroke-width="21.7" stroke-linecap="round"/>
  <circle cx="122.6" cy="434.3" r="0.0" fill="url(#x0g6_aaaaaa_f4d0)" stroke="black" stroke-width="0.0"/>
  <line x1="122.6" y1="434.3" x2="95.2" y2="457.1" stroke="#aaaaaa" stroke-width="21.7" stroke-linecap="round"/>
  <line x1="95.2" y1="457.1" x2="80.8" y2="469.1" stroke="#ffffff" stroke-width="21.7" stroke-linecap="round"/>
  <line x1="122.6" y1="434.3" x2="188.9" y2="419.3" stroke="#aaaaaa" stroke-width="21.7" stroke-linecap="round"/>
  <circle cx="556.9" cy="185.8" r="0.0" fill="url(#x0g8_ff0d0d_f4d0)" stroke="black" stroke-width="0.0"/>
  <line x1="556.9" y1="185.8" x2="591.6" y2="194.5" stroke="#ff0d0d" stroke-width="21.7" stroke-linecap="round"/>
  <line x1="591.6" y1="194.5" x2="630.3" y2="204.2" stroke="#aaaaaa" stroke-width="21.7" stroke-linecap="round"/>
  <line x1="556.9" y1="185.8" x2="529.6" y2="202.5" stroke="#ff0d0d" stroke-width="21.7" stroke-linecap="round"/>
  <line x1="529.6" y1="202.5" x2="513.5" y2="212.3" stroke="#ffffff" stroke-width="21.7" stroke-linecap="round"/>
  <circle cx="243.3" cy="374.6" r="0.0" fill="url(#x0g6_aaaaaa_f4d0)" stroke="black" stroke-width="0.0"/>
  <line x1="243.3" y1="374.6" x2="188.9" y2="419.3" stroke="#aaaaaa" stroke-width="21.7" stroke-linecap="round"/>
  <line x1="243.3" y1="374.6" x2="283.9" y2="363.9" stroke="#aaaaaa" stroke-width="21.7" stroke-linecap="round"/>
  <line x1="283.9" y1="363.9" x2="329.4" y2="351.9" stroke="#ff8000" stroke-width="21.7" stroke-linecap="round"/>
  <circle cx="345.7" cy="503.8" r="0.0" fill="url(#x0g1_ffffff_f4d0)" stroke="black" stroke-width="0.0"/>
  <line x1="345.7" y1="503.8" x2="347.7" y2="504.1" stroke="#ffffff" stroke-width="21.7" stroke-linecap="round"/>
  <line x1="347.7" y1="504.1" x2="351.6" y2="504.7" stroke="#aaaaaa" stroke-width="21.7" stroke-linecap="round"/>
  <circle cx="642.5" cy="263.3" r="0.0" fill="url(#x0g1_ffffff_f4d0)" stroke="black" stroke-width="0.0"/>
  <line x1="642.5" y1="263.3" x2="638.3" y2="242.9" stroke="#ffffff" stroke-width="21.7" stroke-linecap="round"/>
  <line x1="638.3" y1="242.9" x2="630.3" y2="204.2" stroke="#aaaaaa" stroke-width="21.7" stroke-linecap="round"/>
  <circle cx="630.3" cy="204.2" r="0.0" fill="url(#x0g6_aaaaaa_f4d0)" stroke="black" stroke-width="0.0"/>
  <line x1="630.3" y1="204.2" x2="638.3" y2="200.3" stroke="#aaaaaa" stroke-width="21.7" stroke-linecap="round"/>
  <line x1="638.3" y1="200.3" x2="642.5" y2="198.3" stroke="#ffffff" stroke-width="21.7" stroke-linecap="round"/>
  <circle cx="208.1" cy="160.9" r="0.0" fill="url(#x0g6_aaaaaa_f4d0)" stroke="black" stroke-width="0.0"/>
  <line x1="208.1" y1="160.9" x2="147.4" y2="203.0" stroke="#aaaaaa" stroke-width="21.7" stroke-linecap="round"/>
  <line x1="208.1" y1="160.9" x2="220.6" y2="99.9" stroke="#aaaaaa" stroke-width="21.7" stroke-linecap="round"/>
  <line x1="208.1" y1="160.9" x2="215.1" y2="172.2" stroke="#aaaaaa" stroke-width="21.7" stroke-linecap="round"/>
  <line x1="215.1" y1="172.2" x2="224.0" y2="186.7" stroke="#e06633" stroke-width="21.7" stroke-linecap="round"/>
  <circle cx="530.5" cy="447.1" r="0.0" fill="url(#x0g6_aaaaaa_f4d0)" stroke="black" stroke-width="0.0"/>
  <line x1="530.5" y1="447.1" x2="515.7" y2="414.2" stroke="#aaaaaa" stroke-width="21.7" stroke-linecap="round"/>
  <line x1="515.7" y1="414.2" x2="501.8" y2="383.3" stroke="#3050f8" stroke-width="21.7" stroke-linecap="round"/>
  <line x1="530.5" y1="447.1" x2="584.5" y2="486.8" stroke="#aaaaaa" stroke-width="21.7" stroke-linecap="round"/>
  <circle cx="125.0" cy="253.6" r="0.0" fill="url(#x0g1_ffffff_f4d0)" stroke="black" stroke-width="0.0"/>
  <line x1="125.0" y1="253.6" x2="132.7" y2="236.2" stroke="#ffffff" stroke-width="21.7" stroke-linecap="round"/>
  <line x1="132.7" y1="236.2" x2="147.4" y2="203.0" stroke="#aaaaaa" stroke-width="21.7" stroke-linecap="round"/>
  <circle cx="80.8" cy="469.1" r="0.0" fill="url(#x0g1_ffffff_f4d0)" stroke="black" stroke-width="0.0"/>
  <circle cx="188.9" cy="419.3" r="0.0" fill="url(#x0g6_aaaaaa_f4d0)" stroke="black" stroke-width="0.0"/>
  <line x1="188.9" y1="419.3" x2="195.1" y2="435.0" stroke="#aaaaaa" stroke-width="21.7" stroke-linecap="round"/>
  <line x1="195.1" y1="435.0" x2="198.3" y2="443.2" stroke="#ffffff" stroke-width="21.7" stroke-linecap="round"/>
  <circle cx="605.8" cy="538.1" r="0.0" fill="url(#x0g1_ffffff_f4d0)" stroke="black" stroke-width="0.0"/>
  <line x1="605.8" y1="538.1" x2="598.4" y2="520.4" stroke="#ffffff" stroke-width="21.7" stroke-linecap="round"/>
  <line x1="598.4" y1="520.4" x2="584.5" y2="486.8" stroke="#aaaaaa" stroke-width="21.7" stroke-linecap="round"/>
  <circle cx="513.5" cy="212.3" r="0.0" fill="url(#x0g1_ffffff_f4d0)" stroke="black" stroke-width="0.0"/>
  <line x1="513.5" y1="212.3" x2="494.1" y2="224.4" stroke="#ffffff" stroke-width="21.7" stroke-linecap="round"/>
  <line x1="494.1" y1="224.4" x2="459.4" y2="246.1" stroke="#3050f8" stroke-width="21.7" stroke-linecap="round"/>
  <circle cx="147.4" cy="203.0" r="0.0" fill="url(#x0g6_aaaaaa_f4d0)" stroke="black" stroke-width="0.0"/>
  <line x1="147.4" y1="203.0" x2="122.3" y2="167.8" stroke="#aaaaaa" stroke-width="21.7" stroke-linecap="round"/>
  <line x1="147.4" y1="203.0" x2="173.0" y2="201.4" stroke="#aaaaaa" stroke-width="21.7" stroke-linecap="round"/>
  <line x1="173.0" y1="201.4" x2="205.7" y2="199.3" stroke="#e06633" stroke-width="21.7" stroke-linecap="round"/>
  <circle cx="501.8" cy="383.3" r="0.0" fill="url(#x0g7_3050f8_f4d0)" stroke="black" stroke-width="0.0"/>
  <line x1="501.8" y1="383.3" x2="513.7" y2="370.5" stroke="#3050f8" stroke-width="21.7" stroke-linecap="round"/>
  <line x1="513.7" y1="370.5" x2="526.3" y2="357.0" stroke="#aaaaaa" stroke-width="21.7" stroke-linecap="round"/>
  <circle cx="386.9" cy="163.0" r="0.0" fill="url(#x0g1_ffffff_f4d0)" stroke="black" stroke-width="0.0"/>
  <line x1="386.9" y1="163.0" x2="393.8" y2="171.7" stroke="#ffffff" stroke-width="21.7" stroke-linecap="round"/>
  <line x1="393.8" y1="171.7" x2="406.9" y2="188.3" stroke="#aaaaaa" stroke-width="21.7" stroke-linecap="round"/>
  <circle cx="329.4" cy="351.9" r="0.0" fill="url(#x0g15_ff8000_f4d0)" stroke="black" stroke-width="0.0"/>
  <line x1="329.4" y1="351.9" x2="337.1" y2="397.8" stroke="#ff8000" stroke-width="21.7" stroke-linecap="round"/>
  <line x1="337.1" y1="397.8" x2="344.0" y2="438.8" stroke="#aaaaaa" stroke-width="21.7" stroke-linecap="round"/>
  <line x1="329.4" y1="351.9" x2="314.1" y2="317.3" stroke="#ff8000" stroke-width="21.7" stroke-linecap="round"/>
  <line x1="314.1" y1="317.3" x2="300.4" y2="286.4" stroke="#aaaaaa" stroke-width="21.7" stroke-linecap="round"/>
  <circle cx="584.5" cy="486.8" r="0.0" fill="url(#x0g6_aaaaaa_f4d0)" stroke="black" stroke-width="0.0"/>
  <line x1="584.5" y1="486.8" x2="610.7" y2="459.5" stroke="#aaaaaa" stroke-width="21.7" stroke-linecap="round"/>
  <circle cx="263.6" cy="57.9" r="0.0" fill="url(#x0g1_ffffff_f4d0)" stroke="black" stroke-width="0.0"/>
  <line x1="263.6" y1="57.9" x2="248.8" y2="72.4" stroke="#ffffff" stroke-width="21.7" stroke-linecap="round"/>
  <line x1="248.8" y1="72.4" x2="220.6" y2="99.9" stroke="#aaaaaa" stroke-width="21.7" stroke-linecap="round"/>
  <circle cx="351.6" cy="504.7" r="0.0" fill="url(#x0g6_aaaaaa_f4d0)" stroke="black" stroke-width="0.0"/>
  <line x1="351.6" y1="504.7" x2="365.9" y2="571.6" stroke="#aaaaaa" stroke-width="21.7" stroke-linecap="round"/>
  <line x1="351.6" y1="504.7" x2="344.0" y2="438.8" stroke="#aaaaaa" stroke-width="21.7" stroke-linecap="round"/>
  <circle cx="371.2" cy="622.4" r="0.0" fill="url(#x0g1_ffffff_f4d0)" stroke="black" stroke-width="0.0"/>
  <line x1="371.2" y1="622.4" x2="369.4" y2="604.9" stroke="#ffffff" stroke-width="21.7" stroke-linecap="round"/>
  <line x1="369.4" y1="604.9" x2="365.9" y2="571.6" stroke="#aaaaaa" stroke-width="21.7" stroke-linecap="round"/>
  <circle cx="220.6" cy="99.9" r="0.0" fill="url(#x0g6_aaaaaa_f4d0)" stroke="black" stroke-width="0.0"/>
  <line x1="220.6" y1="99.9" x2="223.7" y2="130.0" stroke="#aaaaaa" stroke-width="21.7" stroke-linecap="round"/>
  <line x1="223.7" y1="130.0" x2="227.7" y2="168.4" stroke="#e06633" stroke-width="21.7" stroke-linecap="round"/>
  <line x1="220.6" y1="99.9" x2="167.7" y2="104.1" stroke="#aaaaaa" stroke-width="21.7" stroke-linecap="round"/>
  <circle cx="642.5" cy="198.3" r="0.0" fill="url(#x0g1_ffffff_f4d0)" stroke="black" stroke-width="0.0"/>
  <circle cx="459.4" cy="246.1" r="0.0" fill="url(#x0g7_3050f8_f4d0)" stroke="black" stroke-width="0.0"/>
  <line x1="459.4" y1="246.1" x2="433.9" y2="218.1" stroke="#3050f8" stroke-width="21.7" stroke-linecap="round"/>
  <line x1="433.9" y1="218.1" x2="406.9" y2="188.3" stroke="#aaaaaa" stroke-width="21.7" stroke-linecap="round"/>
  <line x1="459.4" y1="246.1" x2="473.9" y2="266.6" stroke="#3050f8" stroke-width="21.7" stroke-linecap="round"/>
  <line x1="473.9" y1="266.6" x2="489.3" y2="288.3" stroke="#aaaaaa" stroke-width="21.7" stroke-linecap="round"/>
  <circle cx="198.3" cy="443.2" r="0.0" fill="url(#x0g1_ffffff_f4d0)" stroke="black" stroke-width="0.0"/>
  <circle cx="365.9" cy="571.6" r="0.0" fill="url(#x0g6_aaaaaa_f4d0)" stroke="black" stroke-width="0.0"/>
  <line x1="365.9" y1="571.6" x2="373.6" y2="573.6" stroke="#aaaaaa" stroke-width="21.7" stroke-linecap="round"/>
  <circle cx="406.9" cy="188.3" r="0.0" fill="url(#x0g6_aaaaaa_f4d0)" stroke="black" stroke-width="0.0"/>
  <line x1="406.9" y1="188.3" x2="340.2" y2="219.4" stroke="#aaaaaa" stroke-width="21.7" stroke-linecap="round"/>
  <line x1="406.9" y1="188.3" x2="445.0" y2="126.6" stroke="#aaaaaa" stroke-width="21.7" stroke-linecap="round"/>
  <circle cx="344.0" cy="438.8" r="0.0" fill="url(#x0g6_aaaaaa_f4d0)" stroke="black" stroke-width="0.0"/>
  <line x1="344.0" y1="438.8" x2="352.1" y2="441.4" stroke="#aaaaaa" stroke-width="21.7" stroke-linecap="round"/>
  <circle cx="526.3" cy="357.0" r="0.0" fill="url(#x0g6_aaaaaa_f4d0)" stroke="black" stroke-width="0.0"/>
  <line x1="526.3" y1="357.0" x2="489.3" y2="288.3" stroke="#aaaaaa" stroke-width="21.7" stroke-linecap="round"/>
  <line x1="526.3" y1="357.0" x2="581.1" y2="393.8" stroke="#aaaaaa" stroke-width="21.7" stroke-linecap="round"/>
  <circle cx="122.3" cy="167.8" r="0.0" fill="url(#x0g6_aaaaaa_f4d0)" stroke="black" stroke-width="0.0"/>
  <line x1="122.3" y1="167.8" x2="155.7" y2="177.0" stroke="#aaaaaa" stroke-width="21.7" stroke-linecap="round"/>
  <line x1="155.7" y1="177.0" x2="198.2" y2="188.7" stroke="#e06633" stroke-width="21.7" stroke-linecap="round"/>
  <line x1="122.3" y1="167.8" x2="167.7" y2="104.1" stroke="#aaaaaa" stroke-width="21.7" stroke-linecap="round"/>
  <line x1="122.3" y1="167.8" x2="92.9" y2="180.3" stroke="#aaaaaa" stroke-width="21.7" stroke-linecap="round"/>
  <line x1="92.9" y1="180.3" x2="77.5" y2="186.9" stroke="#ffffff" stroke-width="21.7" stroke-linecap="round"/>
  <circle cx="493.6" cy="107.0" r="0.0" fill="url(#x0g1_ffffff_f4d0)" stroke="black" stroke-width="0.0"/>
  <line x1="493.6" y1="107.0" x2="476.8" y2="113.8" stroke="#ffffff" stroke-width="21.7" stroke-linecap="round"/>
  <line x1="476.8" y1="113.8" x2="445.0" y2="126.6" stroke="#aaaaaa" stroke-width="21.7" stroke-linecap="round"/>
  <circle cx="300.4" cy="286.4" r="0.0" fill="url(#x0g6_aaaaaa_f4d0)" stroke="black" stroke-width="0.0"/>
  <line x1="300.4" y1="286.4" x2="279.0" y2="259.1" stroke="#aaaaaa" stroke-width="21.7" stroke-linecap="round"/>
  <line x1="279.0" y1="259.1" x2="251.7" y2="224.4" stroke="#e06633" stroke-width="21.7" stroke-linecap="round"/>
  <line x1="300.4" y1="286.4" x2="340.2" y2="219.4" stroke="#aaaaaa" stroke-width="21.7" stroke-linecap="round"/>
  <line x1="300.4" y1="286.4" x2="241.5" y2="295.6" stroke="#aaaaaa" stroke-width="21.7" stroke-linecap="round"/>
  <circle cx="230.7" cy="197.7" r="37.6" fill="url(#x0g26_e06633_efd0)" stroke="#000000" stroke-width="1.5"/>
  <line x1="211.8" y1="169.6" x2="187.1" y2="132.9" stroke="#e06633" stroke-width="21.7" stroke-linecap="round"/>
  <line x1="187.1" y1="132.9" x2="167.7" y2="104.1" stroke="#aaaaaa" stroke-width="21.7" stroke-linecap="round"/>
  <line x1="263.5" y1="204.2" x2="306.5" y2="212.7" stroke="#e06633" stroke-width="21.7" stroke-linecap="round"/>
  <line x1="306.5" y1="212.7" x2="340.2" y2="219.4" stroke="#aaaaaa" stroke-width="21.7" stroke-linecap="round"/>
  <line x1="234.0" y1="227.4" x2="238.2" y2="265.6" stroke="#e06633" stroke-width="21.7" stroke-linecap="round"/>
  <line x1="238.2" y1="265.6" x2="241.5" y2="295.6" stroke="#aaaaaa" stroke-width="21.7" stroke-linecap="round"/>
  <line x1="253.3" y1="195.3" x2="282.7" y2="192.1" stroke="#e06633" stroke-width="21.7" stroke-linecap="round"/>
  <line x1="282.7" y1="192.1" x2="305.9" y2="189.6" stroke="#aaaaaa" stroke-width="21.7" stroke-linecap="round"/>
  <line x1="235.2" y1="209.3" x2="241.0" y2="224.4" stroke="#e06633" stroke-width="21.7" stroke-linecap="round"/>
  <line x1="241.0" y1="224.4" x2="245.5" y2="236.2" stroke="#aaaaaa" stroke-width="21.7" stroke-linecap="round"/>
  <circle cx="167.7" cy="104.1" r="0.0" fill="url(#x0g6_aaaaaa_f4d0)" stroke="black" stroke-width="0.0"/>
  <line x1="167.7" y1="104.1" x2="164.9" y2="79.3" stroke="#aaaaaa" stroke-width="21.7" stroke-linecap="round"/>
  <line x1="164.9" y1="79.3" x2="163.5" y2="66.2" stroke="#ffffff" stroke-width="21.7" stroke-linecap="round"/>
  <circle cx="610.7" cy="459.5" r="0.0" fill="url(#x0g6_aaaaaa_f4d0)" stroke="black" stroke-width="0.0"/>
  <line x1="610.7" y1="459.5" x2="581.1" y2="393.8" stroke="#aaaaaa" stroke-width="21.7" stroke-linecap="round"/>
  <line x1="610.7" y1="459.5" x2="638.7" y2="478.8" stroke="#aaaaaa" stroke-width="21.7" stroke-linecap="round"/>
  <line x1="638.7" y1="478.8" x2="653.5" y2="489.0" stroke="#ffffff" stroke-width="21.7" stroke-linecap="round"/>
  <circle cx="489.3" cy="288.3" r="0.0" fill="url(#x0g6_aaaaaa_f4d0)" stroke="black" stroke-width="0.0"/>
  <line x1="489.3" y1="288.3" x2="515.0" y2="267.1" stroke="#aaaaaa" stroke-width="21.7" stroke-linecap="round"/>
  <line x1="515.0" y1="267.1" x2="528.6" y2="255.9" stroke="#ffffff" stroke-width="21.7" stroke-linecap="round"/>
  <line x1="489.3" y1="288.3" x2="460.1" y2="299.7" stroke="#aaaaaa" stroke-width="21.7" stroke-linecap="round"/>
  <line x1="460.1" y1="299.7" x2="444.8" y2="305.7" stroke="#ffffff" stroke-width="21.7" stroke-linecap="round"/>
  <circle cx="340.2" cy="219.4" r="0.0" fill="url(#x0g6_aaaaaa_f4d0)" stroke="black" stroke-width="0.0"/>
  <line x1="340.2" y1="219.4" x2="305.9" y2="189.6" stroke="#aaaaaa" stroke-width="21.7" stroke-linecap="round"/>
  <circle cx="445.0" cy="126.6" r="0.0" fill="url(#x0g6_aaaaaa_f4d0)" stroke="black" stroke-width="0.0"/>
  <line x1="445.0" y1="126.6" x2="420.4" y2="95.6" stroke="#aaaaaa" stroke-width="21.7" stroke-linecap="round"/>
  <line x1="420.4" y1="95.6" x2="407.4" y2="79.3" stroke="#ffffff" stroke-width="21.7" stroke-linecap="round"/>
  <line x1="445.0" y1="126.6" x2="457.0" y2="138.8" stroke="#aaaaaa" stroke-width="21.7" stroke-linecap="round"/>
  <line x1="457.0" y1="138.8" x2="463.3" y2="145.1" stroke="#ffffff" stroke-width="21.7" stroke-linecap="round"/>
  <circle cx="77.5" cy="186.9" r="0.0" fill="url(#x0g1_ffffff_f4d0)" stroke="black" stroke-width="0.0"/>
  <circle cx="581.1" cy="393.8" r="0.0" fill="url(#x0g6_aaaaaa_f4d0)" stroke="black" stroke-width="0.0"/>
  <line x1="581.1" y1="393.8" x2="593.4" y2="378.4" stroke="#aaaaaa" stroke-width="21.7" stroke-linecap="round"/>
  <line x1="593.4" y1="378.4" x2="599.9" y2="370.3" stroke="#ffffff" stroke-width="21.7" stroke-linecap="round"/>
  <circle cx="407.4" cy="79.3" r="0.0" fill="url(#x0g1_ffffff_f4d0)" stroke="black" stroke-width="0.0"/>
  <circle cx="653.5" cy="489.0" r="0.0" fill="url(#x0g1_ffffff_f4d0)" stroke="black" stroke-width="0.0"/>
  <circle cx="163.5" cy="66.2" r="0.0" fill="url(#x0g1_ffffff_f4d0)" stroke="black" stroke-width="0.0"/>
  <circle cx="528.6" cy="255.9" r="0.0" fill="url(#x0g1_ffffff_f4d0)" stroke="black" stroke-width="0.0"/>
  <circle cx="241.5" cy="295.6" r="0.0" fill="url(#x0g6_aaaaaa_f4d0)" stroke="black" stroke-width="0.0"/>
  <line x1="241.5" y1="295.6" x2="215.1" y2="325.0" stroke="#aaaaaa" stroke-width="21.7" stroke-linecap="round"/>
  <line x1="215.1" y1="325.0" x2="201.2" y2="340.5" stroke="#ffffff" stroke-width="21.7" stroke-linecap="round"/>
  <line x1="241.5" y1="295.6" x2="245.5" y2="236.2" stroke="#aaaaaa" stroke-width="21.7" stroke-linecap="round"/>
  <circle cx="373.6" cy="573.6" r="0.0" fill="url(#x0g6_aaaaaa_f4d0)" stroke="black" stroke-width="0.0"/>
  <line x1="373.6" y1="573.6" x2="381.0" y2="608.0" stroke="#aaaaaa" stroke-width="21.7" stroke-linecap="round"/>
  <line x1="381.0" y1="608.0" x2="384.9" y2="626.1" stroke="#ffffff" stroke-width="21.7" stroke-linecap="round"/>
  <line x1="373.6" y1="573.6" x2="366.8" y2="508.4" stroke="#aaaaaa" stroke-width="21.7" stroke-linecap="round"/>
  <circle cx="201.2" cy="340.5" r="0.0" fill="url(#x0g1_ffffff_f4d0)" stroke="black" stroke-width="0.0"/>
  <circle cx="444.8" cy="305.7" r="0.0" fill="url(#x0g1_ffffff_f4d0)" stroke="black" stroke-width="0.0"/>
  <circle cx="352.1" cy="441.4" r="0.0" fill="url(#x0g6_aaaaaa_f4d0)" stroke="black" stroke-width="0.0"/>
  <line x1="352.1" y1="441.4" x2="348.2" y2="408.3" stroke="#aaaaaa" stroke-width="21.7" stroke-linecap="round"/>
  <line x1="348.2" y1="408.3" x2="346.1" y2="390.9" stroke="#ffffff" stroke-width="21.7" stroke-linecap="round"/>
  <line x1="352.1" y1="441.4" x2="366.8" y2="508.4" stroke="#aaaaaa" stroke-width="21.7" stroke-linecap="round"/>
  <circle cx="463.3" cy="145.1" r="0.0" fill="url(#x0g1_ffffff_f4d0)" stroke="black" stroke-width="0.0"/>
  <circle cx="384.9" cy="626.1" r="0.0" fill="url(#x0g1_ffffff_f4d0)" stroke="black" stroke-width="0.0"/>
  <circle cx="599.9" cy="370.3" r="0.0" fill="url(#x0g1_ffffff_f4d0)" stroke="black" stroke-width="0.0"/>
  <circle cx="305.9" cy="189.6" r="0.0" fill="url(#x0g6_aaaaaa_f4d0)" stroke="black" stroke-width="0.0"/>
  <line x1="305.9" y1="189.6" x2="245.5" y2="236.2" stroke="#aaaaaa" stroke-width="21.7" stroke-linecap="round"/>
  <line x1="305.9" y1="189.6" x2="316.4" y2="156.3" stroke="#aaaaaa" stroke-width="21.7" stroke-linecap="round"/>
  <line x1="316.4" y1="156.3" x2="321.9" y2="138.8" stroke="#ffffff" stroke-width="21.7" stroke-linecap="round"/>
  <circle cx="346.1" cy="390.9" r="0.0" fill="url(#x0g1_ffffff_f4d0)" stroke="black" stroke-width="0.0"/>
  <circle cx="366.8" cy="508.4" r="0.0" fill="url(#x0g6_aaaaaa_f4d0)" stroke="black" stroke-width="0.0"/>
  <line x1="366.8" y1="508.4" x2="370.7" y2="509.1" stroke="#aaaaaa" stroke-width="21.7" stroke-linecap="round"/>
  <line x1="370.7" y1="509.1" x2="372.7" y2="509.5" stroke="#ffffff" stroke-width="21.7" stroke-linecap="round"/>
  <circle cx="245.5" cy="236.2" r="0.0" fill="url(#x0g6_aaaaaa_f4d0)" stroke="black" stroke-width="0.0"/>
  <line x1="245.5" y1="236.2" x2="220.9" y2="230.2" stroke="#aaaaaa" stroke-width="21.7" stroke-linecap="round"/>
  <line x1="220.9" y1="230.2" x2="208.0" y2="227.1" stroke="#ffffff" stroke-width="21.7" stroke-linecap="round"/>
  <circle cx="321.9" cy="138.8" r="0.0" fill="url(#x0g1_ffffff_f4d0)" stroke="black" stroke-width="0.0"/>
  <circle cx="208.0" cy="227.1" r="0.0" fill="url(#x0g1_ffffff_f4d0)" stroke="black" stroke-width="0.0"/>
  <circle cx="372.7" cy="509.5" r="0.0" fill="url(#x0g1_ffffff_f4d0)" stroke="black" stroke-width="0.0"/>
</svg>